# xmcd
#
# Track frame offsets: 
#        150
#        18488
#        34388
#        48000
#        67838
#        82275
#        98175
#        111975
#        127050
#        155250
#        172050
#        187350
#        206025
#
# Disc length: 2901 seconds
#
# Revision: 0
# Processed by: cddbd v1.5.2PL0 Copyright (c) Steve Scherf et al.
# Submitted via: ExactAudioCopy v0.95b4
#
DISCID=be0b530d
DTITLE=Blues 'N' Trouble - Devil's Tricks
DYEAR=2003
DGENRE=Blues
TTITLE0=Devil's Tricks
TTITLE1=The Dark Street
TTITLE2=Your Deal My friend
TTITLE3=Don't Get Me Wrong
TTITLE4=You'd be Surprised
TTITLE5=You Can't Keep The Change
TTITLE6=Sorry You've Been Troubled
TTITLE7=Watermelon Minnie
TTITLE8=Bring It On Home
TTITLE9=We Can Call It A Day
TTITLE10=Tennessee Whisky
TTITLE11=Hey Everybody
TTITLE12=The Caterpillar Crawl
EXTD=
EXTT0=
EXTT1=
EXTT2=
EXTT3=
EXTT4=
EXTT5=
EXTT6=
EXTT7=
EXTT8=
EXTT9=
EXTT10=
EXTT11=
EXTT12=
PLAYORDER=
